<?xml version="1.0" standalone="no"?>
<!DOCTYPE svg PUBLIC "-//W3C//DTD SVG 1.1//EN" "http://www.w3.org/Graphics/SVG/1.1/DTD/svg11.dtd" >
<svg xmlns="http://www.w3.org/2000/svg">
<metadata></metadata>
<defs>
<font id="journeyps3regular" horiz-adv-x="1503" >
<font-face units-per-em="2048" ascent="1638" descent="-410" />
<missing-glyph horiz-adv-x="819" />
<glyph horiz-adv-x="0" />
<glyph unicode="&#xd;" horiz-adv-x="819" />
<glyph unicode=" "  horiz-adv-x="819" />
<glyph unicode="&#x09;" horiz-adv-x="819" />
<glyph unicode="&#xa0;" horiz-adv-x="819" />
<glyph unicode="!" horiz-adv-x="710" d="M211 43v205q0 16 12.5 29.5t28.5 13.5h203q16 0 29.5 -13.5t13.5 -29.5v-205q0 -16 -13.5 -29.5t-29.5 -13.5h-203q-16 0 -28.5 13.5t-12.5 29.5zM211 633v749q0 18 12.5 31.5t28.5 13.5h203q16 0 29.5 -13t13.5 -32v-749q0 -20 -13.5 -31.5t-29.5 -11.5h-203 q-16 0 -28.5 11t-12.5 32z" />
<glyph unicode="#" horiz-adv-x="1591" d="M121 334v211q0 20 12 32.5t29 12.5h143q16 0 32.5 11t20.5 32l29 178q4 16 -6 29.5t-29 13.5h-121q-16 0 -29.5 13.5t-13.5 29.5v190q0 18 13.5 30.5t29.5 12.5h168q20 0 35 13.5t19 30.5l57 344q6 16 21.5 26t31.5 6l195 -32q16 -2 27.5 -16.5t9.5 -33.5l-54 -294 q-2 -16 9.5 -30t27.5 -14h195q16 0 31.5 13.5t17.5 30.5l61 344q4 16 18.5 26t31.5 6l196 -32q16 -4 27.5 -19.5t7.5 -32.5l-51 -292q-4 -16 7 -30t28 -14h84q18 0 30.5 -12t12.5 -31v-190q0 -16 -12.5 -29.5t-30.5 -13.5h-134q-16 0 -30.5 -13.5t-18.5 -29.5l-30 -178 q-6 -43 34 -43h111q45 0 45 -45v-211q0 -18 -12.5 -30.5t-32.5 -12.5h-162q-20 0 -34.5 -13.5t-18.5 -29.5l-57 -338q-4 -16 -18.5 -26.5t-31.5 -6.5l-198 33q-16 2 -27.5 17.5t-9.5 33.5l53 287q0 14 4 31q2 8 2 12h-43h-194q-16 0 -31.5 -13.5t-17.5 -29.5l-60 -336 q-2 -18 -16.5 -28.5t-34.5 -6.5l-197 33q-16 4 -27.5 19.5t-6.5 31.5l51 287q4 16 -7.5 29.5t-27.5 13.5h-92q-16 0 -28.5 12t-12.5 31zM637 590h281h-281zM647 633q-4 -20 6.5 -31.5t30.5 -11.5h193q16 0 31.5 11t19.5 32l28 178q4 16 -5 29.5t-27 13.5h-195 q-16 0 -31.5 -13.5t-19.5 -29.5z" />
<glyph unicode="$" horiz-adv-x="1314" d="M176 43v205q0 16 12.5 29.5t28.5 13.5h590q20 0 31.5 12t11.5 31v211q0 45 -43 45h-590q-16 0 -28.5 11t-12.5 32v749q0 18 12.5 31.5t28.5 13.5h252q16 0 28.5 12.5t12.5 28.5v60q0 16 13.5 29.5t33.5 13.5h199q16 0 28.5 -13.5t12.5 -29.5v-60q0 -16 13 -28.5t30 -12.5 h254q16 0 29.5 -13t13.5 -32v-208q0 -16 -13.5 -30t-29.5 -14h-590q-16 0 -28.5 -12t-12.5 -31v-190q0 -16 12 -29.5t29 -13.5h590q16 0 29.5 -13.5t13.5 -29.5v-768q0 -16 -13.5 -29.5t-29.5 -13.5h-254q-16 0 -29.5 -12.5t-13.5 -28.5v-59q0 -16 -12.5 -29.5t-32.5 -13.5 h-199q-16 0 -29.5 13t-13.5 30v59q0 16 -12.5 28.5t-28.5 12.5h-252q-16 0 -28.5 13.5t-12.5 29.5z" />
<glyph unicode="%" horiz-adv-x="1746" d="M125 897v485q0 18 12.5 31.5t32.5 13.5h457q16 0 28.5 -13t12.5 -32v-485q0 -16 -12.5 -29.5t-28.5 -13.5h-461q-16 0 -28.5 13.5t-12.5 29.5zM281 25l909 1542q10 16 26.5 20t30.5 -6l203 -121q37 -25 16 -59l-909 -1544q-10 -16 -26.5 -21.5t-30.5 4.5l-203 121 q-37 23 -16 64zM301 1092q0 -20 12.5 -32.5t28.5 -12.5h109q18 0 31.5 12t13.5 33v110q0 16 -13.5 29.5t-31.5 13.5h-109q-16 0 -28.5 -13t-12.5 -30v-110zM1081 49v486q0 16 13.5 29.5t29.5 13.5h459q16 0 29.5 -13.5t13.5 -29.5v-486q0 -18 -13.5 -31.5t-29.5 -13.5h-459 q-16 0 -29.5 13.5t-13.5 31.5zM1257 242q0 -16 13.5 -29.5t29.5 -13.5h107q16 0 29.5 13t13.5 30v110q0 16 -13.5 29.5t-29.5 13.5h-107q-16 0 -29.5 -13t-13.5 -30v-110z" />
<glyph unicode="&#x26;" horiz-adv-x="1478" d="M188 43v434q0 18 8.5 40t20.5 34l137 131q12 14 12.5 31.5t-12.5 29.5l-137 134q-12 12 -20.5 33.5t-8.5 37.5v434q0 18 12.5 31.5t28.5 13.5h717q16 0 29.5 -13t13.5 -32v-434q0 -16 -9 -37.5t-19 -33.5l-136 -134q-14 -12 -14 -29.5t14 -31.5l105 -104 q12 -12 30.5 -12.5t30.5 12.5l96 94q14 12 32 12t30 -12l145 -140q12 -12 12.5 -31.5t-12.5 -31.5l-96 -94q-12 -12 -12 -28.5t12 -29.5l199 -196q12 -14 12 -31.5t-12 -30.5l-144 -143q-12 -12 -31.5 -12t-31.5 12l-199 199q-12 12 -30.5 12t-30.5 -12l-82 -82 q-10 -14 -33.5 -23.5t-40.5 -9.5h-545q-16 0 -28.5 13.5t-12.5 29.5zM477 334q0 -18 13.5 -30.5t29.5 -12.5h137q16 0 38 8t34 20q12 10 10 26.5t-14 29.5l-104 104q-14 12 -32 12.5t-30 -12.5l-51 -49q-12 -12 -21.5 -33.5t-9.5 -38.5v-24zM477 1069q0 -16 9.5 -39.5 t21.5 -36.5l51 -49q12 -10 29.5 -10t32.5 10l49 49q12 12 20 36t8 40v18q0 18 -12 30.5t-29 12.5h-137q-16 0 -29.5 -12t-13.5 -31v-18z" />
<glyph unicode="'" horiz-adv-x="806" d="M211 897v485q0 18 12.5 31.5t28.5 13.5h59q16 0 29.5 -13t13.5 -32v-485q0 -16 -13 -29.5t-30 -13.5h-59q-16 0 -28.5 13.5t-12.5 29.5zM451 897v485q0 18 13 31.5t30 13.5h59q16 0 28.5 -13t12.5 -32v-485q0 -16 -12.5 -29.5t-28.5 -13.5h-59q-16 0 -29.5 13.5 t-13.5 29.5z" />
<glyph unicode="(" horiz-adv-x="827" d="M178 334v753q0 18 6 42t17 40l233 398q8 16 25.5 20t34.5 -6l200 -121q35 -25 15 -59l-222 -381q-10 -14 -16 -38t-6 -44v-455q0 -16 6 -40.5t16 -41.5l222 -376q20 -39 -15 -64l-200 -121q-16 -10 -34 -5t-26 22l-233 397q-10 16 -16.5 38.5t-6.5 41.5z" />
<glyph unicode=")" horiz-adv-x="825" d="M108.5 -11.5q-4.5 17.5 6.5 36.5l225 376q6 16 12 41t6 41v455q0 20 -6 44t-12 38l-225 381q-10 16 -6 32.5t18 26.5l203 121q16 10 33.5 6t23.5 -20l236 -398q10 -16 16 -39.5t6 -42.5v-753q0 -18 -6 -41t-16 -39l-236 -397q-6 -16 -23.5 -21.5t-33.5 4.5l-203 121 q-14 10 -18.5 27.5z" />
<glyph unicode="*" horiz-adv-x="833" d="M150 1212l20 56q4 16 19.5 24t31.5 4l82 -26q39 -14 39 30v82q0 18 12.5 31.5t30.5 13.5h57q20 0 32.5 -13t12.5 -32v-82q0 -45 39 -30l80 26q16 4 32.5 -4t23.5 -24l18 -56q4 -16 -4 -31.5t-25 -23.5l-78 -27q-16 -4 -21 -18t5 -27l49 -69q10 -14 7 -31.5t-17 -30.5 l-45 -32q-16 -10 -34.5 -7t-29.5 17l-47 65q-10 14 -24.5 14.5t-24.5 -14.5l-49 -65q-12 -14 -29.5 -17.5t-31.5 7.5l-48 32q-14 12 -17 29.5t9 32.5l47 69q10 12 6 26.5t-20 18.5l-80 27q-16 8 -24.5 23.5t-3.5 31.5z" />
<glyph unicode="+" horiz-adv-x="1046" d="M123 633v178q0 16 12 29.5t29 13.5h174q16 0 28.5 13.5t12.5 29.5v190q0 18 13.5 30.5t29.5 12.5h203q16 0 28.5 -12t12.5 -31v-190q0 -16 13 -29.5t30 -13.5h170q18 0 31.5 -13.5t13.5 -29.5v-178q0 -20 -13.5 -31.5t-31.5 -11.5h-170q-16 0 -29.5 -12.5t-13.5 -32.5 v-211q0 -18 -12.5 -30.5t-28.5 -12.5h-203q-16 0 -29.5 12t-13.5 31v211q0 20 -12.5 32.5t-28.5 12.5h-174q-16 0 -28.5 11t-12.5 32z" />
<glyph unicode="," horiz-adv-x="673" d="M180.5 -290.5q-4.5 16.5 5.5 30.5l129 225q10 14 4 24.5t-22 10.5h-59q-16 0 -28.5 13.5t-12.5 29.5v205q0 16 12 29.5t29 13.5h202q16 0 29.5 -13.5t13.5 -29.5v-205v-78q0 -16 -7 -38.5t-17 -39.5l-135 -229q-25 -37 -60 -16l-65 41q-14 10 -18.5 26.5z" />
<glyph unicode="-" horiz-adv-x="1224" d="M209 633v178q0 16 12 29.5t29 13.5h715q18 0 31.5 -13.5t13.5 -29.5v-178q0 -20 -13.5 -31.5t-31.5 -11.5h-715q-16 0 -28.5 11t-12.5 32z" />
<glyph unicode="." horiz-adv-x="708" d="M209 43v205q0 16 12 29.5t29 13.5h203q16 0 29.5 -13.5t13.5 -29.5v-205q0 -16 -13.5 -29.5t-29.5 -13.5h-203q-16 0 -28.5 13.5t-12.5 29.5z" />
<glyph unicode="/" horiz-adv-x="1296" d="M55.5 -11.5q-4.5 17.5 5.5 36.5l908 1542q10 16 27.5 20t31.5 -6l203 -121q31 -25 16 -59l-913 -1544q-6 -16 -23.5 -21.5t-34.5 4.5l-202 121q-14 10 -18.5 27.5z" />
<glyph unicode="0" d="M215 43v1339q0 18 12.5 31.5t28.5 13.5h991q16 0 28.5 -13t12.5 -32v-1339q0 -16 -12 -29.5t-29 -13.5h-991q-16 0 -28.5 13.5t-12.5 29.5zM502 334q0 -18 12 -30.5t29 -12.5h418q20 0 30 12t10 31v753q0 18 -10 30.5t-30 12.5h-418q-16 0 -28.5 -12t-12.5 -31v-753z M680 633v178q0 16 13.5 29.5t29.5 13.5h57q16 0 29.5 -13.5t13.5 -29.5v-178q0 -20 -13 -31.5t-30 -11.5h-57q-16 0 -29.5 11t-13.5 32z" />
<glyph unicode="1" horiz-adv-x="880" d="M92 1174v208q0 18 12.5 31.5t28.5 13.5h485q20 0 34 -13t14 -32v-1339q0 -16 -13.5 -29.5t-34.5 -13.5h-198q-16 0 -28.5 13.5t-12.5 29.5v1044q0 18 -13.5 30.5t-29.5 12.5h-203q-16 0 -28.5 13.5t-12.5 30.5z" />
<glyph unicode="2" horiz-adv-x="1196" d="M166 43v330q0 16 8 38.5t21 34.5l507 498q12 12 20.5 33.5t8.5 38.5v71q0 18 -12 30.5t-29 12.5h-192q-16 0 -29.5 -12t-13.5 -31v-22q0 -16 -12.5 -28.5t-28.5 -12.5h-207q-16 0 -28.5 12.5t-12.5 28.5v317q0 18 12 31.5t29 13.5h772q16 0 29.5 -13t13.5 -32v-485 q0 -16 -9 -37.5t-24 -34.5l-508 -506q-12 -12 -9 -20t22 -8h485q16 0 29.5 -13.5t13.5 -29.5v-205q0 -16 -13.5 -29.5t-29.5 -13.5h-481h-84h-207q-16 0 -28.5 13.5t-12.5 29.5z" />
<glyph unicode="3" horiz-adv-x="1214" d="M158 43v313q0 18 12 31.5t29 13.5h207q16 0 28 -13t12 -32v-22q0 -18 13.5 -30.5t29.5 -12.5h193q16 0 28.5 12t12.5 31v18q0 20 -8 42t-21 34l-264 262q-14 12 -14 31.5t14 32.5l264 262q12 12 20.5 33.5t8.5 37.5q0 18 -12.5 30.5t-28.5 12.5h-193q-16 0 -29.5 -12 t-13.5 -31v-22q0 -16 -12 -28.5t-28 -12.5h-207q-16 0 -28.5 12.5t-12.5 28.5v317q0 18 12 31.5t29 13.5h778q16 0 29.5 -13t13.5 -32v-389q0 -16 -8 -38.5t-21 -34.5l-182 -177q-12 -12 -12 -29.5t12 -29.5l182 -178q12 -12 20.5 -33.5t8.5 -38.5v-391q0 -16 -13.5 -29.5 t-29.5 -13.5h-778q-16 0 -28.5 13.5t-12.5 29.5z" />
<glyph unicode="4" horiz-adv-x="1337" d="M156 633v749q0 18 12 31.5t29 13.5h202q16 0 29.5 -13t13.5 -32v-485q0 -16 12.5 -29.5t28.5 -13.5h310q20 0 31.5 13.5t11.5 29.5v485q0 18 13 31.5t32 13.5h198q16 0 29.5 -13t13.5 -32v-1339q0 -16 -13 -29.5t-30 -13.5h-198q-18 0 -31.5 13.5t-13.5 29.5v502 q0 45 -43 45h-596q-16 0 -28.5 11t-12.5 32z" />
<glyph unicode="5" horiz-adv-x="1273" d="M199 43v313q0 18 12 31.5t29 13.5h206q16 0 28.5 -13t12.5 -32v-22q0 -18 13.5 -30.5t29.5 -12.5h45q16 0 38 8t34 25l133 133q12 12 21.5 34.5t9.5 40.5v13q0 20 -13.5 32.5t-29.5 12.5h-528q-16 0 -28.5 11t-12.5 32v749q0 18 12 31.5t29 13.5h825q16 0 28.5 -13 t12.5 -32v-208q0 -16 -12.5 -30t-28.5 -14h-539q-16 0 -28.5 -12t-12.5 -31v-190q0 -16 12.5 -29.5t28.5 -13.5h539q16 0 28.5 -13.5t12.5 -29.5v-403q0 -20 -10.5 -41t-22.5 -33l-305 -301q-12 -14 -33.5 -23.5t-42.5 -9.5h-452q-16 0 -28.5 13.5t-12.5 29.5z" />
<glyph unicode="6" horiz-adv-x="1384" d="M215 43v1339q0 18 12.5 31.5t28.5 13.5h893q16 0 29.5 -13t13.5 -32v-208q0 -16 -13.5 -30t-29.5 -14h-606q-16 0 -28.5 -12t-12.5 -31v-190q0 -16 12 -29.5t29 -13.5h418h88h100q16 0 29.5 -13.5t13.5 -29.5v-768q0 -16 -13.5 -29.5t-29.5 -13.5h-893q-16 0 -28.5 13.5 t-12.5 29.5zM502 334q0 -18 12 -30.5t29 -12.5h309q20 0 31.5 12t11.5 31v211q0 45 -43 45h-309q-16 0 -28.5 -12.5t-12.5 -32.5v-211z" />
<glyph unicode="7" horiz-adv-x="1263" d="M115 1174v208q0 18 12 31.5t29 13.5h968q16 0 28.5 -13t12.5 -32v-208q0 -16 -6 -40t-12 -38l-737 -1239q-6 -16 -23.5 -21.5t-34.5 4.5l-202 121q-14 10 -18.5 27.5t5.5 36.5l629 1071q10 14 3 24t-24 10h-589q-16 0 -28.5 13.5t-12.5 30.5z" />
<glyph unicode="8" horiz-adv-x="1372" d="M203 897v485q0 18 12 31.5t29 13.5h880q18 0 29.5 -13t11.5 -32v-325v-88v-72q0 -16 -8 -37.5t-20 -34.5l-84 -82q-12 -12 -12.5 -29.5t12.5 -31.5l84 -78q12 -16 20 -37.5t8 -38.5v-485q0 -16 -12 -29.5t-29 -13.5h-247h-385h-244q-20 0 -31.5 13.5t-11.5 29.5v489 q0 16 9 38t22 34l79 78q12 14 12.5 31.5t-12.5 29.5l-84 82q-12 12 -20 34t-8 38zM492 334q0 -18 13 -30.5t32 -12.5h297q16 0 29.5 12t13.5 31v74q0 20 -9.5 41.5t-19.5 33.5l-80 74q-12 12 -33.5 22.5t-38.5 10.5h-22q-18 0 -40 -10.5t-34 -22.5l-76 -74 q-12 -12 -22 -33.5t-10 -37.5v-78zM492 1016q0 -16 9 -38t21 -36l62 -59q12 -12 33.5 -20.5t37.5 -8.5h58q16 0 37.5 8t33.5 21l64 61q10 12 20.5 33.5t10.5 38.5v71q0 18 -12.5 30.5t-28.5 12.5h-303q-16 0 -29.5 -12t-13.5 -31v-71z" />
<glyph unicode="9" horiz-adv-x="1380" d="M188 43v205q0 16 12.5 29.5t28.5 13.5h607q20 0 32.5 12t12.5 31v211q0 45 -45 45h-607q-16 0 -28.5 11t-12.5 32v749q0 18 12.5 31.5t28.5 13.5h893q16 0 29.5 -13t13.5 -32v-1339q0 -16 -13 -29.5t-30 -13.5h-893q-16 0 -28.5 13.5t-12.5 29.5zM483 897 q0 -16 13.5 -29.5t29.5 -13.5h310q20 0 32.5 13.5t12.5 29.5v190q0 18 -12.5 30.5t-32.5 12.5h-310q-16 0 -29.5 -12t-13.5 -31v-190z" />
<glyph unicode=":" horiz-adv-x="708" d="M209 43v205q0 16 12 29.5t29 13.5h203q16 0 29.5 -13.5t13.5 -29.5v-205q0 -16 -13.5 -29.5t-29.5 -13.5h-203q-16 0 -28.5 13.5t-12.5 29.5zM209 633v178q0 16 12 29.5t29 13.5h203q16 0 29.5 -13.5t13.5 -29.5v-178q0 -20 -13.5 -31.5t-29.5 -11.5h-203q-16 0 -28.5 11 t-12.5 32z" />
<glyph unicode=";" horiz-adv-x="684" d="M184.5 -290.5q-4.5 16.5 5.5 30.5l129 225q10 14 4 24.5t-22 10.5h-59q-16 0 -28.5 13.5t-12.5 29.5v205q0 16 12 29.5t29 13.5h202q16 0 29.5 -13.5t13.5 -29.5v-205v-78q0 -16 -7 -38.5t-17 -39.5l-135 -229q-25 -37 -60 -16l-65 41q-14 10 -18.5 26.5zM201 633v178 q0 16 11 29.5t30 13.5h198q16 0 29.5 -13.5t13.5 -29.5v-178q0 -20 -13 -31.5t-30 -11.5h-198q-41 0 -41 43z" />
<glyph unicode="&#x3c;" horiz-adv-x="942" d="M78 721.5q0 19.5 12 32.5l512 508q12 12 30.5 13t31.5 -13l139 -134q12 -12 12 -29.5t-12 -29.5l-332 -326q-12 -12 -12 -29.5t12 -29.5l322 -315q12 -14 12 -32t-12 -30l-129 -127q-12 -12 -31 -12t-31 12l-512 510q-12 12 -12 31.5z" />
<glyph unicode="=" horiz-adv-x="1222" d="M209 334v211q0 20 12 32.5t29 12.5h715q18 0 31.5 -12.5t13.5 -32.5v-211q0 -18 -13.5 -30.5t-31.5 -12.5h-715q-16 0 -28.5 12t-12.5 31zM209 897v190q0 18 12 30.5t33 12.5h713q16 0 29.5 -12t13.5 -31v-190q0 -16 -13.5 -29.5t-29.5 -13.5h-713q-20 0 -32.5 13.5 t-12.5 29.5z" />
<glyph unicode="&#x3e;" horiz-adv-x="944" d="M127 1098.5q0 17.5 16 29.5l136 134q12 14 31.5 13t31.5 -13l510 -508q12 -12 12 -32t-12 -32l-510 -510q-12 -12 -31.5 -12t-31.5 12l-129 127q-12 12 -12.5 29.5t12.5 32.5l321 315q12 12 12 29.5t-12 29.5l-332 326q-12 12 -12 29.5z" />
<glyph unicode="?" horiz-adv-x="1124" d="M119 1065v317q0 18 12 31.5t29 13.5h772q16 0 29.5 -13t13.5 -32v-389q0 -16 -9.5 -38.5t-23.5 -34.5l-194 -193q-12 -12 -22.5 -33.5t-10.5 -42.5v-18q0 -20 -13.5 -31.5t-29.5 -11.5h-199q-43 0 -43 43v143q0 20 9.5 41t21.5 33l188 192q29 35 29 62q0 10 -12.5 18 t-30.5 8h-184q-16 0 -29.5 -12t-13.5 -31v-22q0 -16 -12.5 -28.5t-28.5 -12.5h-207q-16 0 -28.5 12.5t-12.5 28.5zM430 43v205q0 16 11.5 29.5t31.5 13.5h199q16 0 29.5 -13.5t13.5 -29.5v-205q0 -16 -13.5 -29.5t-29.5 -13.5h-199q-20 0 -31.5 13.5t-11.5 29.5z" />
<glyph unicode="@" horiz-adv-x="1777" d="M195 408v974q0 18 12 31.5t29 13.5h1296q16 0 29.5 -13t13.5 -32v-1048q0 -18 -13.5 -30.5t-29.5 -12.5h-811q-16 0 -37.5 8t-34.5 20l-133 138q-12 12 -20.5 33.5t-8.5 37.5v559q0 18 12.5 30.5t28.5 12.5h715q16 0 28.5 -12t12.5 -31v-454q0 -20 13.5 -31.5t29.5 -11.5 h59q16 0 28.5 11t12.5 32v602q0 16 -12 29.5t-29 13.5h-1001q-18 0 -29.5 -13.5t-11.5 -29.5v-766q0 -18 8 -39.5t21 -34.5l219 -219q12 -12 33.5 -20.5t38.5 -8.5h868q16 0 29.5 -13t13.5 -32v-59q0 -16 -13.5 -29.5t-29.5 -13.5h-924q-20 0 -41.5 9t-34.5 24l-305 301 q-16 12 -24 32.5t-8 41.5zM743 633q0 -20 13.5 -31.5t29.5 -11.5h199q16 0 29.5 11t13.5 32v178q0 16 -13.5 29.5t-29.5 13.5h-199q-16 0 -29.5 -13.5t-13.5 -29.5v-178z" />
<glyph unicode="A" horiz-adv-x="1492" d="M215 43v1339q0 18 12.5 31.5t28.5 13.5h633q16 0 37.5 -10t36.5 -22l307 -299q12 -12 20 -34t8 -42v-977q0 -16 -12 -29.5t-31 -13.5h-206q-20 0 -31.5 13.5t-11.5 29.5v502q0 45 -45 45h-418q-16 0 -28.5 -12.5t-12.5 -32.5v-502q0 -16 -13.5 -29.5t-29.5 -13.5h-203 q-16 0 -28.5 13.5t-12.5 29.5zM502 897q0 -16 12 -29.5t29 -13.5h418q20 0 32.5 13.5t12.5 29.5t-10.5 37.5t-22.5 36.5l-129 131q-12 12 -34 20t-42 8h-225q-16 0 -28.5 -12t-12.5 -31v-190z" />
<glyph unicode="B" horiz-adv-x="1454" d="M215 43v1339q0 18 12.5 31.5t28.5 13.5h633h84h176q16 0 29.5 -13t13.5 -32v-389q0 -16 -9 -38.5t-22 -34.5l-127 -125q-12 -12 -12 -28.5t12 -29.5l236 -231q12 -12 20 -33.5t8 -38.5v-391q0 -16 -12 -29.5t-31 -13.5h-999q-16 0 -28.5 13.5t-12.5 29.5zM502 334 q0 -18 12 -30.5t29 -12.5h418q20 0 32.5 12t12.5 31v18q0 20 -10.5 42t-22.5 34l-129 129q-12 12 -34 22.5t-42 10.5h-225q-16 0 -28.5 -12.5t-12.5 -32.5v-211zM502 897q0 -16 12 -29.5t29 -13.5h119q18 0 39.5 8t33.5 21l131 133q12 12 20.5 33.5t8.5 37.5 q0 18 -11.5 30.5t-31.5 12.5h-309q-16 0 -28.5 -12t-12.5 -31v-190z" />
<glyph unicode="C" horiz-adv-x="1146" d="M215 43v1339q0 18 12.5 31.5t28.5 13.5h715q18 0 31.5 -13t13.5 -32v-208q0 -16 -13.5 -30t-31.5 -14h-428q-16 0 -28.5 -12t-12.5 -31v-753q0 -18 12 -30.5t29 -12.5h428q18 0 31.5 -13.5t13.5 -29.5v-205q0 -16 -13.5 -29.5t-31.5 -13.5h-715q-16 0 -28.5 13.5 t-12.5 29.5z" />
<glyph unicode="D" horiz-adv-x="1492" d="M215 43v1339q0 18 12.5 31.5t28.5 13.5h999q18 0 30.5 -13t12.5 -32v-974q0 -45 -28 -74l-307 -301q-14 -14 -36 -23.5t-38 -9.5h-633q-16 0 -28.5 13.5t-12.5 29.5zM502 334q0 -18 12 -30.5t29 -12.5h225q20 0 41.5 8t34.5 20l129 134q12 12 22.5 33.5t10.5 37.5v563 q0 18 -12.5 30.5t-32.5 12.5h-418q-16 0 -28.5 -12t-12.5 -31v-753z" />
<glyph unicode="E" horiz-adv-x="1181" d="M215 43v1339q0 18 12.5 31.5t28.5 13.5h715q18 0 31.5 -13t13.5 -32v-208q0 -16 -13.5 -30t-31.5 -14h-428q-16 0 -28.5 -12t-12.5 -31v-190q0 -16 12 -29.5t29 -13.5h428q18 0 31.5 -13.5t13.5 -29.5v-178q0 -20 -13.5 -31.5t-31.5 -11.5h-428q-16 0 -28.5 -12.5 t-12.5 -32.5v-211q0 -18 12 -30.5t29 -12.5h428q18 0 31.5 -13.5t13.5 -29.5v-205q0 -16 -13.5 -29.5t-31.5 -13.5h-715q-16 0 -28.5 13.5t-12.5 29.5z" />
<glyph unicode="F" horiz-adv-x="1112" d="M215 43v1339q0 18 12.5 31.5t28.5 13.5h715q18 0 31.5 -13t13.5 -32v-208q0 -16 -13.5 -30t-31.5 -14h-428q-16 0 -28.5 -12t-12.5 -31v-190q0 -16 12 -29.5t29 -13.5h319q16 0 29.5 -13.5t13.5 -29.5v-178q0 -20 -13 -31.5t-30 -11.5h-319q-16 0 -28.5 -12.5 t-12.5 -32.5v-502q0 -16 -13.5 -29.5t-29.5 -13.5h-203q-16 0 -28.5 13.5t-12.5 29.5z" />
<glyph unicode="G" horiz-adv-x="1470" d="M195 408v974q0 18 12 31.5t29 13.5h999q18 0 30.5 -13t12.5 -32v-208q0 -16 -12.5 -30t-30.5 -14h-703q-16 0 -29.5 -12t-13.5 -31v-555q0 -18 9.5 -40.5t21.5 -34.5l133 -133q12 -16 34 -24.5t38 -8.5h225q18 0 31.5 12t13.5 31v211q0 20 -13 32.5t-32 12.5h-24 q-16 0 -28.5 11t-12.5 32v178q0 16 12 29.5t29 13.5h309q18 0 30.5 -13.5t12.5 -29.5v-768q0 -16 -12.5 -29.5t-30.5 -13.5h-627q-20 0 -41.5 9t-34.5 24l-309 301q-29 29 -28 74z" />
<glyph unicode="H" d="M215 43v1339q0 18 12.5 31.5t28.5 13.5h203q16 0 29.5 -13t13.5 -32v-485q0 -16 12 -29.5t29 -13.5h418q20 0 32.5 13.5t12.5 29.5v485q0 18 11 31.5t32 13.5h198q16 0 28.5 -13t12.5 -32v-1339q0 -16 -12 -29.5t-29 -13.5h-198q-20 0 -31.5 13.5t-11.5 29.5v502 q0 45 -45 45h-418q-16 0 -28.5 -12.5t-12.5 -32.5v-502q0 -16 -13.5 -29.5t-29.5 -13.5h-203q-16 0 -28.5 13.5t-12.5 29.5z" />
<glyph unicode="I" horiz-adv-x="716" d="M215 43v1339q0 18 12.5 31.5t28.5 13.5h203q16 0 29.5 -13t13.5 -32v-1339q0 -16 -13.5 -29.5t-29.5 -13.5h-203q-16 0 -28.5 13.5t-12.5 29.5z" />
<glyph unicode="J" horiz-adv-x="933" d="M25 -155.5q0 16.5 12 28.5l369 375q12 16 20 37.5t8 38.5v763q0 18 -13 30.5t-30 12.5h-254q-16 0 -28.5 13.5t-12.5 30.5v208q0 18 12.5 31.5t28.5 13.5h539q18 0 31.5 -13t13.5 -32v-1230q0 -18 -10.5 -40t-22.5 -32l-418 -428q-10 -12 -28 -13h-2q-16 0 -31 11 l-168 166q-16 12 -16 28.5z" />
<glyph unicode="K" horiz-adv-x="1411" d="M215 43v1339q0 18 12.5 31.5t28.5 13.5h215q20 0 33.5 -13t13.5 -32v-485q0 -16 12.5 -29.5t28.5 -13.5h31q16 0 37.5 8t34.5 21l223 219q12 12 21 33.5t9 38.5v208q0 18 12.5 31.5t28.5 13.5h205q18 0 30.5 -13t12.5 -32v-325q0 -20 -8 -42t-20 -34l-226 -227 q-16 -16 -18 -35t8 -35l385 -659q7 -15 7 -27q0 -21 -19 -37l-203 -121q-12 -7 -23 -7q-20 0 -36 24l-414 694q-6 16 -25.5 27.5t-38.5 11.5h-14q-16 0 -28.5 -12.5t-12.5 -32.5v-502q0 -16 -13 -29.5t-34 -13.5h-215q-16 0 -28.5 13.5t-12.5 29.5z" />
<glyph unicode="L" horiz-adv-x="1093" d="M215 43v1339q0 18 12.5 31.5t28.5 13.5h203q16 0 29.5 -13t13.5 -32v-1048q0 -18 12 -30.5t29 -12.5h428q18 0 31.5 -13.5t13.5 -29.5v-205q0 -16 -13.5 -29.5t-31.5 -13.5h-715q-16 0 -28.5 13.5t-12.5 29.5z" />
<glyph unicode="M" horiz-adv-x="1638" d="M215 43v1339q0 18 12.5 31.5t28.5 13.5h190q18 0 38 -12t26 -26l287 -484q8 -16 20 -16t23 16l282 484q10 14 29.5 26t36.5 12h188q20 0 33.5 -13t13.5 -32v-1339q0 -16 -13 -29.5t-34 -13.5h-188q-16 0 -29.5 13.5t-13.5 29.5v762q0 39 -23 4l-282 -483 q-10 -14 -22.5 -14.5t-20.5 14.5l-287 483q-6 16 -12 14t-6 -18v-762q0 -16 -13.5 -29.5t-32.5 -13.5h-190q-16 0 -28.5 13.5t-12.5 29.5z" />
<glyph unicode="N" horiz-adv-x="1511" d="M215 43v1339q0 18 12.5 31.5t28.5 13.5h190q18 0 38 -12t26 -26l489 -828q8 -16 13.5 -13t5.5 19v815q0 18 13 31.5t30 13.5h192q16 0 29.5 -13t13.5 -32v-1339q0 -16 -13 -29.5t-30 -13.5h-221q-16 0 -35.5 11.5t-29.5 27.5l-457 770q-6 16 -12 14t-6 -18v-762 q0 -16 -13.5 -29.5t-32.5 -13.5h-190q-16 0 -28.5 13.5t-12.5 29.5z" />
<glyph unicode="O" d="M215 43v1339q0 18 12.5 31.5t28.5 13.5h991q16 0 28.5 -13t12.5 -32v-1339q0 -16 -12 -29.5t-29 -13.5h-991q-16 0 -28.5 13.5t-12.5 29.5zM502 334q0 -18 12 -30.5t29 -12.5h418q20 0 32.5 12t12.5 31v753q0 18 -12.5 30.5t-32.5 12.5h-418q-16 0 -28.5 -12t-12.5 -31 v-753z" />
<glyph unicode="P" horiz-adv-x="1454" d="M215 43v1339q0 18 12.5 31.5t28.5 13.5h999q18 0 30.5 -13t12.5 -32v-749q0 -20 -12 -31.5t-31 -11.5h-696q-16 0 -28.5 -12.5t-12.5 -32.5v-502q0 -16 -13 -29.5t-34 -13.5h-215q-16 0 -28.5 13.5t-12.5 29.5zM518 897q0 -16 12.5 -29.5t28.5 -13.5h412q18 0 31.5 13.5 t13.5 29.5v190q0 18 -13.5 30.5t-31.5 12.5h-412q-16 0 -28.5 -12t-12.5 -31v-190z" />
<glyph unicode="Q" d="M215 43v1339q0 18 12.5 31.5t28.5 13.5h991q16 0 28.5 -13t12.5 -32v-1339q0 -16 -12 -29.5t-29 -13.5h-125q-16 0 -22 -10t4 -25l82 -139q10 -18 5 -34.5t-22 -24.5l-202 -125q-13 -7 -24 -7q-20 0 -36 23l-178 307q-10 14 -29.5 24.5t-35.5 10.5h-408q-16 0 -28.5 13.5 t-12.5 29.5zM502 334q0 -18 12 -30.5t29 -12.5h418q20 0 32.5 12t12.5 31v753q0 18 -12.5 30.5t-32.5 12.5h-418q-16 0 -28.5 -12t-12.5 -31v-753z" />
<glyph unicode="R" horiz-adv-x="1564" d="M143 1174v208q0 18 12.5 31.5t28.5 13.5h1112q16 0 28.5 -13t12.5 -32v-749q0 -20 -12 -31.5t-29 -11.5h-125q-16 0 -22 -11.5t4 -27.5l309 -526q4 -13 4 -24q0 -24 -20 -40l-203 -121q-9 -7 -20 -7q-5 0 -11 2q-18 5 -28 22l-412 694q-8 16 -27.5 27.5t-37.5 11.5h-111 q-16 0 -29.5 -12.5t-13.5 -32.5v-502q0 -16 -13.5 -29.5t-29.5 -13.5h-215q-16 0 -28.5 13.5t-12.5 29.5v1044q0 18 -13.5 30.5t-33.5 12.5h-23q-16 0 -28.5 13.5t-12.5 30.5zM553 897q0 -16 13.5 -29.5t29.5 -13.5h414q16 0 28.5 13.5t12.5 29.5v190q0 18 -12.5 30.5 t-28.5 12.5h-414q-16 0 -29.5 -12t-13.5 -31v-190z" />
<glyph unicode="S" horiz-adv-x="1183" d="M190 43v205q0 16 12.5 29.5t28.5 13.5h431q16 0 29.5 12t13.5 31v211q0 20 -13.5 32.5t-29.5 12.5h-431q-16 0 -28.5 11t-12.5 32v749q0 18 12.5 31.5t28.5 13.5h715q18 0 31.5 -13t13.5 -32v-208q0 -16 -13 -30t-32 -14h-428q-16 0 -28.5 -12t-12.5 -31v-190 q0 -16 12.5 -29.5t28.5 -13.5h428q18 0 31.5 -13.5t13.5 -29.5v-768q0 -16 -13 -29.5t-32 -13.5h-715q-16 0 -28.5 13.5t-12.5 29.5z" />
<glyph unicode="T" horiz-adv-x="1251" d="M82 1174v208q0 18 12 31.5t29 13.5h999q18 0 30.5 -13t12.5 -32v-208q0 -16 -12 -30t-31 -14h-311q-16 0 -29.5 -12t-13.5 -31v-1044q0 -16 -12.5 -29.5t-32.5 -13.5h-199q-16 0 -29.5 13.5t-13.5 29.5v1044q0 18 -12 30.5t-29 12.5h-317q-16 0 -28.5 13.5t-12.5 30.5z " />
<glyph unicode="U" horiz-adv-x="1492" d="M195 408v974q0 18 12 31.5t29 13.5h213q16 0 28 -13t12 -32v-850q0 -18 9.5 -40.5t21.5 -34.5l133 -133q12 -16 34 -24.5t38 -8.5h225q18 0 31.5 12t13.5 31v1048q0 18 12.5 31.5t28.5 13.5h199q18 0 30.5 -13t12.5 -32v-1339q0 -16 -12.5 -29.5t-30.5 -13.5h-627 q-20 0 -41.5 9t-34.5 24l-309 301q-29 29 -28 74z" />
<glyph unicode="V" horiz-adv-x="1347" d="M184 506v876q0 18 12.5 31.5t28.5 13.5h213q16 0 28.5 -13t12.5 -32v-753q0 -16 9.5 -38t21.5 -34l133 -137q12 -10 29.5 -10t27.5 10l136 137q12 12 20 33.5t8 38.5v753q0 18 13.5 31.5t29.5 13.5h211q16 0 29.5 -13t13.5 -32v-876q0 -16 -9 -38t-22 -34l-430 -420 q-10 -12 -27.5 -12t-29.5 12l-430 420q-12 12 -20.5 33.5t-8.5 38.5z" />
<glyph unicode="W" horiz-adv-x="1638" d="M215 43v1339q0 18 12.5 31.5t28.5 13.5h190q18 0 32 -13t14 -32v-759q0 -16 6 -18.5t12 13.5l287 480q8 16 20 16t23 -16l282 -480q23 -35 23 5v759q0 18 13 31.5t30 13.5h188q20 0 33.5 -13t13.5 -32v-1339q0 -16 -13 -29.5t-34 -13.5h-188q-16 0 -35.5 11.5t-30.5 27.5 l-282 483q-10 14 -22.5 14.5t-20.5 -14.5l-287 -483q-6 -16 -25.5 -27.5t-38.5 -11.5h-190q-16 0 -28.5 13.5t-12.5 29.5z" />
<glyph unicode="X" horiz-adv-x="1382" d="M182 43v330q0 16 10.5 38.5t22.5 34.5l240 236q12 14 12 31.5t-12 29.5l-244 238q-12 12 -20.5 33.5t-8.5 42.5v325q0 18 12.5 31.5t28.5 13.5h207q16 0 28.5 -13t12.5 -32v-208q0 -16 9 -38t22 -34l157 -158q14 -12 30.5 -12t33.5 12l156 158q12 12 20 33.5t8 38.5v208 q0 18 13.5 31.5t33.5 13.5h201q16 0 29.5 -13t13.5 -32v-325q0 -20 -9 -42t-22 -34l-239 -238q-16 -12 -16.5 -29.5t16.5 -31.5l237 -236q14 -12 23.5 -34.5t9.5 -38.5v-330q0 -16 -13.5 -29.5t-29.5 -13.5h-205q-16 0 -29.5 13.5t-13.5 29.5v211q0 18 -8 38.5t-20 33.5 l-156 153q-16 12 -33.5 12.5t-30.5 -12.5l-155 -153q-14 -12 -23.5 -33t-9.5 -39v-211q0 -16 -12.5 -29.5t-28.5 -13.5h-203q-20 0 -32.5 13.5t-12.5 29.5z" />
<glyph unicode="Y" horiz-adv-x="1337" d="M180 434v948q0 18 12.5 31.5t28.5 13.5h203q16 0 29.5 -13t13.5 -32v-661q0 -16 12.5 -29.5t28.5 -13.5h276q18 0 30.5 13.5t12.5 29.5v661q0 18 13.5 31.5t31.5 13.5h209q16 0 29.5 -13t13.5 -32v-1218q0 -20 -9 -42t-21 -34l-437 -442q-14 -12 -31 -12q-1 -1 -2 -1 q-16 0 -28 13l-143 137q-12 12 -12.5 30.5t12.5 30.5l346 365q12 12 20 33.5t8 38.5v65q0 16 -12 29.5t-31 13.5h-563q-16 0 -28.5 12.5t-12.5 32.5z" />
<glyph unicode="Z" horiz-adv-x="1333" d="M158 43v330q0 16 8 38.5t20 34.5l668 656q12 12 8 20t-20 8h-643q-16 0 -28.5 13.5t-12.5 30.5v208q0 18 12 31.5t29 13.5h643h84h204q16 0 30 -13t14 -32v-325q0 -20 -9.5 -42t-23.5 -34l-668 -662q-12 -12 -9 -20t21 -8h645q16 0 30 -13.5t14 -29.5v-205 q0 -16 -13.5 -29.5t-30.5 -13.5h-641h-83h-207q-16 0 -28.5 13.5t-12.5 29.5z" />
<glyph unicode="[" horiz-adv-x="907" d="M215 -100v1628q0 16 12.5 29.5t28.5 13.5h485q20 0 33.5 -13.5t13.5 -29.5v-205q0 -16 -13 -29.5t-34 -13.5h-198q-16 0 -28.5 -12.5t-12.5 -28.5v-1049q0 -18 12 -30.5t29 -12.5h198q20 0 33.5 -13t13.5 -32v-202q0 -16 -13 -29.5t-34 -13.5h-485q-16 0 -28.5 13 t-12.5 30z" />
<glyph unicode="\" horiz-adv-x="1296" d="M43 1433.5q4 16.5 18 26.5l203 121q16 10 33.5 6t24.5 -20l913 -1542q14 -41 -16 -64l-203 -121q-14 -10 -31.5 -5t-28.5 22l-907 1544q-10 16 -6 32.5z" />
<glyph unicode="]" horiz-adv-x="905" d="M117 -100v202q0 18 12 31.5t29 13.5h202q16 0 29.5 12.5t13.5 30.5v1049q0 16 -13 28.5t-30 12.5h-202q-16 0 -28.5 13.5t-12.5 29.5v205q0 16 12 29.5t29 13.5h485q20 0 33.5 -13.5t13.5 -29.5v-1628q0 -16 -13 -29.5t-34 -13.5h-485q-16 0 -28.5 13t-12.5 30z" />
<glyph unicode="_" horiz-adv-x="1495" d="M209 -133q0 16 12 29.5t29 13.5h991q16 0 28.5 -13.5t12.5 -29.5v-201q0 -20 -12.5 -33.5t-28.5 -13.5h-991q-16 0 -28.5 13.5t-12.5 33.5v201z" />
<glyph unicode="a" horiz-adv-x="1492" d="M215 43v1339q0 18 12.5 31.5t28.5 13.5h633q16 0 37.5 -10t36.5 -22l307 -299q12 -12 20 -34t8 -42v-977q0 -16 -12 -29.5t-31 -13.5h-206q-20 0 -31.5 13.5t-11.5 29.5v502q0 45 -45 45h-418q-16 0 -28.5 -12.5t-12.5 -32.5v-502q0 -16 -13.5 -29.5t-29.5 -13.5h-203 q-16 0 -28.5 13.5t-12.5 29.5zM502 897q0 -16 12 -29.5t29 -13.5h418q20 0 32.5 13.5t12.5 29.5t-10.5 37.5t-22.5 36.5l-129 131q-12 12 -34 20t-42 8h-225q-16 0 -28.5 -12t-12.5 -31v-190z" />
<glyph unicode="b" horiz-adv-x="1454" d="M215 43v1339q0 18 12.5 31.5t28.5 13.5h633h84h176q16 0 29.5 -13t13.5 -32v-389q0 -16 -9 -38.5t-22 -34.5l-127 -125q-12 -12 -12 -28.5t12 -29.5l236 -231q12 -12 20 -33.5t8 -38.5v-391q0 -16 -12 -29.5t-31 -13.5h-999q-16 0 -28.5 13.5t-12.5 29.5zM502 334 q0 -18 12 -30.5t29 -12.5h418q20 0 32.5 12t12.5 31v18q0 20 -10.5 42t-22.5 34l-129 129q-12 12 -34 22.5t-42 10.5h-225q-16 0 -28.5 -12.5t-12.5 -32.5v-211zM502 897q0 -16 12 -29.5t29 -13.5h119q18 0 39.5 8t33.5 21l131 133q12 12 20.5 33.5t8.5 37.5 q0 18 -11.5 30.5t-31.5 12.5h-309q-16 0 -28.5 -12t-12.5 -31v-190z" />
<glyph unicode="c" horiz-adv-x="1146" d="M215 43v1339q0 18 12.5 31.5t28.5 13.5h715q18 0 31.5 -13t13.5 -32v-208q0 -16 -13.5 -30t-31.5 -14h-428q-16 0 -28.5 -12t-12.5 -31v-753q0 -18 12 -30.5t29 -12.5h428q18 0 31.5 -13.5t13.5 -29.5v-205q0 -16 -13.5 -29.5t-31.5 -13.5h-715q-16 0 -28.5 13.5 t-12.5 29.5z" />
<glyph unicode="d" horiz-adv-x="1492" d="M215 43v1339q0 18 12.5 31.5t28.5 13.5h999q18 0 30.5 -13t12.5 -32v-974q0 -45 -28 -74l-307 -301q-14 -14 -36 -23.5t-38 -9.5h-633q-16 0 -28.5 13.5t-12.5 29.5zM502 334q0 -18 12 -30.5t29 -12.5h225q20 0 41.5 8t34.5 20l129 134q12 12 22.5 33.5t10.5 37.5v563 q0 18 -12.5 30.5t-32.5 12.5h-418q-16 0 -28.5 -12t-12.5 -31v-753z" />
<glyph unicode="e" horiz-adv-x="1181" d="M215 43v1339q0 18 12.5 31.5t28.5 13.5h715q18 0 31.5 -13t13.5 -32v-208q0 -16 -13.5 -30t-31.5 -14h-428q-16 0 -28.5 -12t-12.5 -31v-190q0 -16 12 -29.5t29 -13.5h428q18 0 31.5 -13.5t13.5 -29.5v-178q0 -20 -13.5 -31.5t-31.5 -11.5h-428q-16 0 -28.5 -12.5 t-12.5 -32.5v-211q0 -18 12 -30.5t29 -12.5h428q18 0 31.5 -13.5t13.5 -29.5v-205q0 -16 -13.5 -29.5t-31.5 -13.5h-715q-16 0 -28.5 13.5t-12.5 29.5z" />
<glyph unicode="f" horiz-adv-x="1112" d="M215 43v1339q0 18 12.5 31.5t28.5 13.5h715q18 0 31.5 -13t13.5 -32v-208q0 -16 -13.5 -30t-31.5 -14h-428q-16 0 -28.5 -12t-12.5 -31v-190q0 -16 12 -29.5t29 -13.5h319q16 0 29.5 -13.5t13.5 -29.5v-178q0 -20 -13 -31.5t-30 -11.5h-319q-16 0 -28.5 -12.5 t-12.5 -32.5v-502q0 -16 -13.5 -29.5t-29.5 -13.5h-203q-16 0 -28.5 13.5t-12.5 29.5z" />
<glyph unicode="g" horiz-adv-x="1470" d="M195 408v974q0 18 12 31.5t29 13.5h999q18 0 30.5 -13t12.5 -32v-208q0 -16 -12.5 -30t-30.5 -14h-703q-16 0 -29.5 -12t-13.5 -31v-555q0 -18 9.5 -40.5t21.5 -34.5l133 -133q12 -16 34 -24.5t38 -8.5h225q18 0 31.5 12t13.5 31v211q0 20 -13 32.5t-32 12.5h-24 q-16 0 -28.5 11t-12.5 32v178q0 16 12 29.5t29 13.5h309q18 0 30.5 -13.5t12.5 -29.5v-768q0 -16 -12.5 -29.5t-30.5 -13.5h-627q-20 0 -41.5 9t-34.5 24l-309 301q-29 29 -28 74z" />
<glyph unicode="h" d="M215 43v1339q0 18 12.5 31.5t28.5 13.5h203q16 0 29.5 -13t13.5 -32v-485q0 -16 12 -29.5t29 -13.5h418q20 0 32.5 13.5t12.5 29.5v485q0 18 11 31.5t32 13.5h198q16 0 28.5 -13t12.5 -32v-1339q0 -16 -12 -29.5t-29 -13.5h-198q-20 0 -31.5 13.5t-11.5 29.5v502 q0 45 -45 45h-418q-16 0 -28.5 -12.5t-12.5 -32.5v-502q0 -16 -13.5 -29.5t-29.5 -13.5h-203q-16 0 -28.5 13.5t-12.5 29.5z" />
<glyph unicode="i" horiz-adv-x="716" d="M215 43v1339q0 18 12.5 31.5t28.5 13.5h203q16 0 29.5 -13t13.5 -32v-1339q0 -16 -13.5 -29.5t-29.5 -13.5h-203q-16 0 -28.5 13.5t-12.5 29.5z" />
<glyph unicode="j" horiz-adv-x="933" d="M25 -155.5q0 16.5 12 28.5l369 375q12 16 20 37.5t8 38.5v763q0 18 -13 30.5t-30 12.5h-254q-16 0 -28.5 13.5t-12.5 30.5v208q0 18 12.5 31.5t28.5 13.5h539q18 0 31.5 -13t13.5 -32v-1230q0 -18 -10.5 -40t-22.5 -32l-418 -428q-10 -12 -28 -13h-2q-16 0 -31 11 l-168 166q-16 12 -16 28.5z" />
<glyph unicode="k" horiz-adv-x="1411" d="M215 43v1339q0 18 12.5 31.5t28.5 13.5h215q20 0 33.5 -13t13.5 -32v-485q0 -16 12.5 -29.5t28.5 -13.5h31q16 0 37.5 8t34.5 21l223 219q12 12 21 33.5t9 38.5v208q0 18 12.5 31.5t28.5 13.5h205q18 0 30.5 -13t12.5 -32v-325q0 -20 -8 -42t-20 -34l-226 -227 q-16 -16 -18 -35t8 -35l385 -659q7 -15 7 -27q0 -21 -19 -37l-203 -121q-12 -7 -23 -7q-20 0 -36 24l-414 694q-6 16 -25.5 27.5t-38.5 11.5h-14q-16 0 -28.5 -12.5t-12.5 -32.5v-502q0 -16 -13 -29.5t-34 -13.5h-215q-16 0 -28.5 13.5t-12.5 29.5z" />
<glyph unicode="l" horiz-adv-x="1093" d="M215 43v1339q0 18 12.5 31.5t28.5 13.5h203q16 0 29.5 -13t13.5 -32v-1048q0 -18 12 -30.5t29 -12.5h428q18 0 31.5 -13.5t13.5 -29.5v-205q0 -16 -13.5 -29.5t-31.5 -13.5h-715q-16 0 -28.5 13.5t-12.5 29.5z" />
<glyph unicode="m" horiz-adv-x="1638" d="M215 43v1339q0 18 12.5 31.5t28.5 13.5h190q18 0 38 -12t26 -26l287 -484q8 -16 20 -16t23 16l282 484q10 14 29.5 26t36.5 12h188q20 0 33.5 -13t13.5 -32v-1339q0 -16 -13 -29.5t-34 -13.5h-188q-16 0 -29.5 13.5t-13.5 29.5v762q0 39 -23 4l-282 -483 q-10 -14 -22.5 -14.5t-20.5 14.5l-287 483q-6 16 -12 14t-6 -18v-762q0 -16 -13.5 -29.5t-32.5 -13.5h-190q-16 0 -28.5 13.5t-12.5 29.5z" />
<glyph unicode="n" horiz-adv-x="1511" d="M215 43v1339q0 18 12.5 31.5t28.5 13.5h190q18 0 38 -12t26 -26l489 -828q8 -16 13.5 -13t5.5 19v815q0 18 13 31.5t30 13.5h192q16 0 29.5 -13t13.5 -32v-1339q0 -16 -13 -29.5t-30 -13.5h-221q-16 0 -35.5 11.5t-29.5 27.5l-457 770q-6 16 -12 14t-6 -18v-762 q0 -16 -13.5 -29.5t-32.5 -13.5h-190q-16 0 -28.5 13.5t-12.5 29.5z" />
<glyph unicode="o" d="M215 43v1339q0 18 12.5 31.5t28.5 13.5h991q16 0 28.5 -13t12.5 -32v-1339q0 -16 -12 -29.5t-29 -13.5h-991q-16 0 -28.5 13.5t-12.5 29.5zM502 334q0 -18 12 -30.5t29 -12.5h418q20 0 32.5 12t12.5 31v753q0 18 -12.5 30.5t-32.5 12.5h-418q-16 0 -28.5 -12t-12.5 -31 v-753z" />
<glyph unicode="p" horiz-adv-x="1454" d="M215 43v1339q0 18 12.5 31.5t28.5 13.5h999q18 0 30.5 -13t12.5 -32v-749q0 -20 -12 -31.5t-31 -11.5h-696q-16 0 -28.5 -12.5t-12.5 -32.5v-502q0 -16 -13 -29.5t-34 -13.5h-215q-16 0 -28.5 13.5t-12.5 29.5zM518 897q0 -16 12.5 -29.5t28.5 -13.5h412q18 0 31.5 13.5 t13.5 29.5v190q0 18 -13.5 30.5t-31.5 12.5h-412q-16 0 -28.5 -12t-12.5 -31v-190z" />
<glyph unicode="q" d="M215 43v1339q0 18 12.5 31.5t28.5 13.5h991q16 0 28.5 -13t12.5 -32v-1339q0 -16 -12 -29.5t-29 -13.5h-125q-16 0 -22 -10t4 -25l82 -139q10 -18 5 -34.5t-22 -24.5l-202 -125q-13 -7 -24 -7q-20 0 -36 23l-178 307q-10 14 -29.5 24.5t-35.5 10.5h-408q-16 0 -28.5 13.5 t-12.5 29.5zM502 334q0 -18 12 -30.5t29 -12.5h418q20 0 32.5 12t12.5 31v753q0 18 -12.5 30.5t-32.5 12.5h-418q-16 0 -28.5 -12t-12.5 -31v-753z" />
<glyph unicode="r" horiz-adv-x="1564" d="M143 1174v208q0 18 12.5 31.5t28.5 13.5h1112q16 0 28.5 -13t12.5 -32v-749q0 -20 -12 -31.5t-29 -11.5h-125q-16 0 -22 -11.5t4 -27.5l309 -526q4 -13 4 -24q0 -24 -20 -40l-203 -121q-9 -7 -20 -7q-5 0 -11 2q-18 5 -28 22l-412 694q-8 16 -27.5 27.5t-37.5 11.5h-111 q-16 0 -29.5 -12.5t-13.5 -32.5v-502q0 -16 -13.5 -29.5t-29.5 -13.5h-215q-16 0 -28.5 13.5t-12.5 29.5v1044q0 18 -13.5 30.5t-33.5 12.5h-23q-16 0 -28.5 13.5t-12.5 30.5zM553 897q0 -16 13.5 -29.5t29.5 -13.5h414q16 0 28.5 13.5t12.5 29.5v190q0 18 -12.5 30.5 t-28.5 12.5h-414q-16 0 -29.5 -12t-13.5 -31v-190z" />
<glyph unicode="s" horiz-adv-x="1183" d="M190 43v205q0 16 12.5 29.5t28.5 13.5h431q16 0 29.5 12t13.5 31v211q0 20 -13.5 32.5t-29.5 12.5h-431q-16 0 -28.5 11t-12.5 32v749q0 18 12.5 31.5t28.5 13.5h715q18 0 31.5 -13t13.5 -32v-208q0 -16 -13 -30t-32 -14h-428q-16 0 -28.5 -12t-12.5 -31v-190 q0 -16 12.5 -29.5t28.5 -13.5h428q18 0 31.5 -13.5t13.5 -29.5v-768q0 -16 -13 -29.5t-32 -13.5h-715q-16 0 -28.5 13.5t-12.5 29.5z" />
<glyph unicode="t" horiz-adv-x="1251" d="M82 1174v208q0 18 12 31.5t29 13.5h999q18 0 30.5 -13t12.5 -32v-208q0 -16 -12 -30t-31 -14h-311q-16 0 -29.5 -12t-13.5 -31v-1044q0 -16 -12.5 -29.5t-32.5 -13.5h-199q-16 0 -29.5 13.5t-13.5 29.5v1044q0 18 -12 30.5t-29 12.5h-317q-16 0 -28.5 13.5t-12.5 30.5z " />
<glyph unicode="u" horiz-adv-x="1492" d="M195 408v974q0 18 12 31.5t29 13.5h213q16 0 28 -13t12 -32v-850q0 -18 9.5 -40.5t21.5 -34.5l133 -133q12 -16 34 -24.5t38 -8.5h225q18 0 31.5 12t13.5 31v1048q0 18 12.5 31.5t28.5 13.5h199q18 0 30.5 -13t12.5 -32v-1339q0 -16 -12.5 -29.5t-30.5 -13.5h-627 q-20 0 -41.5 9t-34.5 24l-309 301q-29 29 -28 74z" />
<glyph unicode="v" horiz-adv-x="1347" d="M184 506v876q0 18 12.5 31.5t28.5 13.5h213q16 0 28.5 -13t12.5 -32v-753q0 -16 9.5 -38t21.5 -34l133 -137q12 -10 29.5 -10t27.5 10l136 137q12 12 20 33.5t8 38.5v753q0 18 13.5 31.5t29.5 13.5h211q16 0 29.5 -13t13.5 -32v-876q0 -16 -9 -38t-22 -34l-430 -420 q-10 -12 -27.5 -12t-29.5 12l-430 420q-12 12 -20.5 33.5t-8.5 38.5z" />
<glyph unicode="w" horiz-adv-x="1638" d="M215 43v1339q0 18 12.5 31.5t28.5 13.5h190q18 0 32 -13t14 -32v-759q0 -16 6 -18.5t12 13.5l287 480q8 16 20 16t23 -16l282 -480q23 -35 23 5v759q0 18 13 31.5t30 13.5h188q20 0 33.5 -13t13.5 -32v-1339q0 -16 -13 -29.5t-34 -13.5h-188q-16 0 -35.5 11.5t-30.5 27.5 l-282 483q-10 14 -22.5 14.5t-20.5 -14.5l-287 -483q-6 -16 -25.5 -27.5t-38.5 -11.5h-190q-16 0 -28.5 13.5t-12.5 29.5z" />
<glyph unicode="x" horiz-adv-x="1382" d="M182 43v330q0 16 10.5 38.5t22.5 34.5l240 236q12 14 12 31.5t-12 29.5l-244 238q-12 12 -20.5 33.5t-8.5 42.5v325q0 18 12.5 31.5t28.5 13.5h207q16 0 28.5 -13t12.5 -32v-208q0 -16 9 -38t22 -34l157 -158q14 -12 30.5 -12t33.5 12l156 158q12 12 20 33.5t8 38.5v208 q0 18 13.5 31.5t33.5 13.5h201q16 0 29.5 -13t13.5 -32v-325q0 -20 -9 -42t-22 -34l-239 -238q-16 -12 -16.5 -29.5t16.5 -31.5l237 -236q14 -12 23.5 -34.5t9.5 -38.5v-330q0 -16 -13.5 -29.5t-29.5 -13.5h-205q-16 0 -29.5 13.5t-13.5 29.5v211q0 18 -8 38.5t-20 33.5 l-156 153q-16 12 -33.5 12.5t-30.5 -12.5l-155 -153q-14 -12 -23.5 -33t-9.5 -39v-211q0 -16 -12.5 -29.5t-28.5 -13.5h-203q-20 0 -32.5 13.5t-12.5 29.5z" />
<glyph unicode="y" horiz-adv-x="1337" d="M180 434v948q0 18 12.5 31.5t28.5 13.5h203q16 0 29.5 -13t13.5 -32v-661q0 -16 12.5 -29.5t28.5 -13.5h276q18 0 30.5 13.5t12.5 29.5v661q0 18 13.5 31.5t31.5 13.5h209q16 0 29.5 -13t13.5 -32v-1218q0 -20 -9 -42t-21 -34l-437 -442q-14 -12 -31 -12q-1 -1 -2 -1 q-16 0 -28 13l-143 137q-12 12 -12.5 30.5t12.5 30.5l346 365q12 12 20 33.5t8 38.5v65q0 16 -12 29.5t-31 13.5h-563q-16 0 -28.5 12.5t-12.5 32.5z" />
<glyph unicode="z" horiz-adv-x="1333" d="M158 43v330q0 16 8 38.5t20 34.5l668 656q12 12 8 20t-20 8h-643q-16 0 -28.5 13.5t-12.5 30.5v208q0 18 12 31.5t29 13.5h643h84h204q16 0 30 -13t14 -32v-325q0 -20 -9.5 -42t-23.5 -34l-668 -662q-12 -12 -9 -20t21 -8h645q16 0 30 -13.5t14 -29.5v-205 q0 -16 -13.5 -29.5t-30.5 -13.5h-641h-83h-207q-16 0 -28.5 13.5t-12.5 29.5z" />
<glyph unicode="{" horiz-adv-x="913" d="M66 721.5q0 19.5 12 32.5l160 155q12 12 20 34t8 38v106q0 18 6.5 42t16.5 40l235 398q8 16 25.5 20t32.5 -6l202 -121q16 -10 19.5 -26.5t-6.5 -32.5l-222 -381q-10 -14 -16 -38t-6 -44v-61q0 -16 -8 -38t-25 -34l-61 -62q-12 -12 -12.5 -29.5t12.5 -29.5l61 -61 q16 -12 24.5 -34t8.5 -40v-66q0 -16 6 -40.5t16 -41.5l222 -376q23 -39 -13 -64l-202 -121q-14 -10 -32 -5t-26 22l-235 397q-10 16 -16.5 38.5t-6.5 41.5v127q0 16 -8 38.5t-20 35.5l-160 155q-12 12 -12 31.5z" />
<glyph unicode="|" horiz-adv-x="716" d="M215 -117v1661q0 16 12.5 29.5t28.5 13.5h203q16 0 29.5 -13t13.5 -30v-1661q0 -16 -13.5 -29.5t-29.5 -13.5h-203q-16 0 -28.5 13.5t-12.5 29.5z" />
<glyph unicode="}" horiz-adv-x="913" d="M108.5 -11.5q-4.5 17.5 6.5 36.5l225 376q6 16 12 41t6 41v66q0 18 10.5 39.5t22.5 34.5l62 61q12 12 12 29.5t-12 29.5l-62 62q-12 12 -22.5 33.5t-10.5 38.5v61q0 20 -6 44t-12 38l-225 381q-10 16 -6 32.5t18 26.5l203 121q16 10 33.5 6t23.5 -20l236 -398 q10 -16 16 -39.5t6 -42.5v-106q0 -16 8.5 -37.5t20.5 -34.5l160 -155q12 -12 12 -32t-12 -32l-160 -155q-12 -12 -20.5 -35t-8.5 -39v-127q0 -18 -6 -41t-16 -39l-236 -397q-6 -16 -23.5 -21.5t-33.5 4.5l-203 121q-14 10 -18.5 27.5z" />
<glyph unicode="&#xad;" horiz-adv-x="1224" d="M209 633v178q0 16 12 29.5t29 13.5h715q18 0 31.5 -13.5t13.5 -29.5v-178q0 -20 -13.5 -31.5t-31.5 -11.5h-715q-16 0 -28.5 11t-12.5 32z" />
<glyph unicode="&#xb1;" horiz-adv-x="1101" d="M150 158v178q0 16 12 29.5t28 13.5h717q16 0 29.5 -13.5t13.5 -29.5v-178q0 -16 -13 -29.5t-30 -13.5h-717q-16 0 -28 13t-12 30zM150 827v183q0 16 12 29.5t28 13.5h175q16 0 28.5 12t12.5 31v190q0 18 13 30.5t30 12.5h202q16 0 28.5 -12t12.5 -31v-190 q0 -18 13.5 -30.5t29.5 -12.5h172q16 0 29.5 -13.5t13.5 -29.5v-183q0 -16 -13 -28.5t-30 -12.5h-172q-16 0 -29.5 -13t-13.5 -30v-211q0 -18 -12 -30.5t-29 -12.5h-202q-16 0 -29.5 12.5t-13.5 30.5v211q0 16 -12.5 29.5t-28.5 13.5h-175q-16 0 -28 12.5t-12 28.5z" />
<glyph unicode="&#x2c6;" horiz-adv-x="1034" d="M108.5 717.5q-4.5 17.5 6.5 32.5l377 645q23 31 47 0l376 -645q10 -14 6.5 -32t-18.5 -28l-131 -78q-35 -20 -59 17l-174 301q-25 31 -47 0l-177 -301q-10 -16 -26.5 -21.5t-30.5 4.5l-131 78q-14 10 -18.5 27.5z" />
<glyph unicode="&#x2dc;" horiz-adv-x="1808" d="M106.5 533.5q-0.5 19.5 12.5 29.5l473 461q10 12 30.5 15t36.5 -7l496 -293q14 -10 34.5 -6t33.5 17l274 274q12 12 30.5 12t31.5 -12l129 -127q12 -12 12 -29.5t-12 -29.5l-469 -463q-12 -12 -32 -14.5t-36 8.5l-496 293q-16 8 -35.5 5t-31.5 -16l-277 -272 q-12 -16 -29.5 -16.5t-29.5 12.5l-129 127q-16 12 -16.5 31.5z" />
<glyph unicode="&#x2000;" horiz-adv-x="794" />
<glyph unicode="&#x2001;" horiz-adv-x="1588" />
<glyph unicode="&#x2002;" horiz-adv-x="794" />
<glyph unicode="&#x2003;" horiz-adv-x="1588" />
<glyph unicode="&#x2004;" horiz-adv-x="529" />
<glyph unicode="&#x2005;" horiz-adv-x="397" />
<glyph unicode="&#x2006;" horiz-adv-x="264" />
<glyph unicode="&#x2007;" horiz-adv-x="264" />
<glyph unicode="&#x2008;" horiz-adv-x="198" />
<glyph unicode="&#x2009;" horiz-adv-x="317" />
<glyph unicode="&#x200a;" horiz-adv-x="88" />
<glyph unicode="&#x2010;" horiz-adv-x="1224" d="M209 633v178q0 16 12 29.5t29 13.5h715q18 0 31.5 -13.5t13.5 -29.5v-178q0 -20 -13.5 -31.5t-31.5 -11.5h-715q-16 0 -28.5 11t-12.5 32z" />
<glyph unicode="&#x2011;" horiz-adv-x="1224" d="M209 633v178q0 16 12 29.5t29 13.5h715q18 0 31.5 -13.5t13.5 -29.5v-178q0 -20 -13.5 -31.5t-31.5 -11.5h-715q-16 0 -28.5 11t-12.5 32z" />
<glyph unicode="&#x2012;" horiz-adv-x="1224" d="M209 633v178q0 16 12 29.5t29 13.5h715q18 0 31.5 -13.5t13.5 -29.5v-178q0 -20 -13.5 -31.5t-31.5 -11.5h-715q-16 0 -28.5 11t-12.5 32z" />
<glyph unicode="&#x2013;" horiz-adv-x="1447" d="M209 633v178q0 16 15.5 29.5t36.5 13.5h914q23 0 40.5 -13.5t17.5 -29.5v-178q0 -20 -17.5 -31.5t-40.5 -11.5h-914q-20 0 -36 11t-16 32z" />
<glyph unicode="&#x2014;" horiz-adv-x="2471" d="M209 633v178q0 16 30.5 29.5t74.5 13.5h1828q46 0 80.5 -13.5t34.5 -29.5v-178q0 -20 -34.5 -31.5t-80.5 -11.5h-1828q-41 0 -73 11t-32 32z" />
<glyph unicode="&#x202f;" horiz-adv-x="317" />
<glyph unicode="&#x205f;" horiz-adv-x="397" />
<glyph unicode="&#x25fc;" horiz-adv-x="1423" d="M0 0v1423h1423v-1423h-1423z" />
</font>
</defs>
</svg>
